<?xml version="1.0" encoding="UTF-8" standalone="no"?>
<svg width="1191px" height="260px" viewBox="0 0 1191 260" version="1.1" xmlns="http://www.w3.org/2000/svg" xmlns:xlink="http://www.w3.org/1999/xlink" xmlns:sketch="http://www.bohemiancoding.com/sketch/ns">
    <!-- Generator: Sketch 3.4.4 (17248) - http://www.bohemiancoding.com/sketch -->
    <title>炎亭园 </title>
    <desc>Created with Sketch.</desc>
    <defs></defs>
    <g id="Page-1" stroke="none" stroke-width="1" fill="none" fill-rule="evenodd" sketch:type="MSPage">
        <g id="Homepage-(Chinese)" sketch:type="MSArtboardGroup" transform="translate(-125.000000, -426.000000)" fill="#000000" opacity="0.03">
            <path d="M334.376,443.28 C324.584,457.968 307.016,478.992 294.056,491.664 L300.104,496.272 C313.352,483.6 329.768,464.304 341.576,447.6 L334.376,443.28 Z M197,486.48 C188.072,475.824 170.216,457.392 155.528,443.856 L150.056,449.04 C164.456,462.864 182.312,481.872 191.528,493.104 L197,486.48 Z M353.672,542.064 C328.904,523.92 281.384,497.136 241.928,478.704 C247.4,463.152 250.856,445.872 253.16,426 L243.944,426 C237.32,490.512 217.448,532.848 131.336,550.416 C132.488,552.144 135.08,555.6 135.944,557.616 C194.696,544.944 223.784,521.04 239.048,486.192 C277.928,504.912 324.584,532.272 349.064,550.128 L353.672,542.064 Z M301.832,620.112 C314.216,606.288 329.768,585.552 341,567.984 L333.512,563.376 C324.296,579.216 307.88,601.968 295.496,615.792 L301.832,620.112 Z M147.464,569.712 C162.44,584.112 180.872,603.984 190.664,615.504 L196.136,608.304 C186.92,597.648 168.2,578.352 152.936,564.24 L147.464,569.712 Z M241.928,537.456 C235.592,607.44 217.736,657.84 125,678.576 C126.728,680.016 129.032,683.472 130.184,685.776 C204.2,668.496 231.848,632.784 243.944,582.096 C261.512,639.696 299.816,671.664 366.92,684.048 C368.072,681.168 370.376,678.288 372.392,676.56 C299.816,665.04 261.8,629.04 247.4,564.528 C249.128,555.888 250.28,546.96 251.144,537.456 L241.928,537.456 Z M631.992006,603.696 L723.864006,603.696 L723.864006,670.224 C723.864006,674.544 722.712006,675.696 716.952006,676.272 C711.480006,676.56 693.336006,676.848 667.416006,675.984 C669.144006,678.864 670.296006,681.456 670.872006,684.048 C699.960006,684.048 715.800006,684.048 723.000006,682.32 C730.200006,680.592 732.216006,677.712 732.216006,669.936 L732.216006,603.696 L815.160006,603.696 L815.160006,595.344 L631.992006,595.344 L631.992006,603.696 Z M604.056006,603.408 L612.408006,603.408 L612.408006,567.12 L833.304006,567.12 L833.304006,603.408 L841.656006,603.408 L841.656006,558.768 L604.056006,558.768 L604.056006,603.408 Z M799.608006,525.648 L645.816006,525.648 L645.816006,493.104 L799.608006,493.104 L799.608006,525.648 Z M637.464006,484.752 L637.464006,534 L807.960006,534 L807.960006,484.752 L637.464006,484.752 Z M737.400006,453.936 C732.216006,445.872 721.848006,434.064 713.208006,426 L705.720006,430.032 C713.208006,436.944 721.272006,446.448 726.744006,453.936 L596.856006,453.936 L596.856006,462.288 L847.128006,462.288 L847.128006,453.936 L737.400006,453.936 Z M1269.16001,488.208 L1126.60001,488.208 L1126.60001,496.56 L1269.16001,496.56 L1269.16001,488.208 Z M1236.90401,631.344 C1227.11201,631.344 1225.38401,630.192 1225.38401,624.144 L1225.38401,547.824 L1289.60801,547.824 L1289.60801,539.472 L1104.13601,539.472 L1104.13601,547.824 L1161.44801,547.824 C1158.56801,600.816 1147.62401,628.464 1102.12001,644.016 C1104.13601,645.456 1107.01601,648.624 1108.16801,650.64 C1154.82401,633.936 1166.63201,604.272 1169.80001,547.824 L1217.32001,547.824 L1217.32001,624.144 C1217.32001,637.104 1221.35201,639.696 1237.19201,639.696 L1274.34401,639.696 C1288.16801,639.696 1291.04801,632.784 1291.91201,603.696 C1289.32001,603.12 1286.15201,601.68 1283.84801,599.952 C1283.27201,627.6 1281.83201,631.344 1273.48001,631.344 L1236.90401,631.344 Z M1088.29601,663.024 L1088.29601,448.752 L1306.88801,448.752 L1306.88801,663.024 L1088.29601,663.024 Z M1079.94401,440.4 L1079.94401,685.776 L1088.29601,685.776 L1088.29601,671.376 L1306.88801,671.376 L1306.88801,685.776 L1315.24001,685.776 L1315.24001,440.4 L1079.94401,440.4 Z" id="炎亭园-" sketch:type="MSShapeGroup"></path>
        </g>
    </g>
</svg>