<?xml version="1.0" encoding="UTF-8" standalone="no"?>
<svg width="1440px" height="1024px" viewBox="0 0 1440 1024" version="1.1" xmlns="http://www.w3.org/2000/svg" xmlns:xlink="http://www.w3.org/1999/xlink" style="background: #FFFFFF;">
    <!-- Generator: Sketch 3.8.3 (29802) - http://www.bohemiancoding.com/sketch -->
    <title>Homepage (Chinese) Copy</title>
    <desc>Created with Sketch.</desc>
    <defs></defs>
    <g id="Page-1" stroke="none" stroke-width="1" fill="none" fill-rule="evenodd" opacity="0.0453591418">
        <g id="Homepage-(Chinese)-Copy" fill="#222222">
            <path d="M438,448 L316.8,448 L316.8,414.1 L414.3,414.1 L414.3,405.4 L316.8,405.4 L316.8,376.6 L308.1,376.6 L308.1,405.4 L210.3,405.4 L210.3,414.1 L308.1,414.1 L308.1,448 L187.5,448 L187.5,456.7 L438,456.7 L438,448 Z M231.3,489.4 L396,489.4 L396,531.4 L231.3,531.4 L231.3,489.4 Z M414.6,549.4 C400.5,561.1 376.8,576.7 357.6,587.5 C342.3,573.7 329.4,557.5 320.1,540.1 L404.7,540.1 L404.7,480.7 L222.6,480.7 L222.6,540.1 L296.4,540.1 C266.4,563.2 216.3,584.8 177,594.4 C179.1,596.2 181.8,599.5 183.3,602.2 C203.4,596.5 226.8,587.8 249.6,577 L249.6,622.9 C249.6,634 242.7,637.3 238.8,638.8 C240.3,640.9 242.1,644.5 243.3,647.2 L243.3,648.4 C248.1,644.8 255.6,641.8 330.3,618.4 C329.7,616.6 329.1,613 328.8,610.3 L258.3,631.6 L258.3,572.8 C277.8,562.6 295.8,551.5 309,540.1 L310.5,540.1 C336,590.2 386.4,628 442.5,645.1 C444,642.4 446.4,639.1 448.8,637 C417,628.6 387.3,613 363,592 C382.5,582.1 405.6,567.7 422.4,554.5 L414.6,549.4 Z M837.4,438.4 C833.5,459.1 828.1,483.7 822.4,499 L829.9,500.8 C836.8,484 843.1,454.9 847.6,431.5 L842.2,429.1 L840.1,429.7 L742,429.7 C746.8,413.5 751,396.1 754.3,378.1 L745.3,376.9 C736.9,423.7 722.8,467.8 700.9,497.2 C703.3,498.1 707.5,500.2 709.3,501.4 C721.3,484.6 731.5,462.7 739.3,438.4 L837.4,438.4 Z M700.3,478.3 L700.3,469.6 L606.1,469.6 L606.1,413.8 C637.9,407.5 673.3,398.5 694.9,387.7 L686.2,381.4 C667.3,391.9 629.5,401.2 597.4,407.5 L597.4,524.5 C597.4,559 595.6,603.1 577,634 C579.1,635.2 582.7,637.6 584.2,639.7 C603.4,607.6 606.1,560.2 606.1,524.2 L606.1,478.3 L659.2,478.3 L659.2,637 L667.9,637 L667.9,478.3 L700.3,478.3 Z M776.2,460.6 L767.5,460.6 L767.5,478.6 C767.5,525.1 763.3,589.6 697,641.5 C699.4,642.7 702.7,645.4 703.9,647.2 C749.5,611.5 766.6,569.8 772.6,530.8 C784.6,583.9 804.7,617.2 842.2,646.9 C843.4,644.2 846.1,641.5 848.5,639.7 C806.5,607.3 786.7,570.4 775.6,504.7 C776.2,495.7 776.2,486.7 776.2,478.3 L776.2,460.6 Z M1050.2,452.2 L1050.2,457.3 C1050.2,490.6 1048.4,530.2 1031.3,568.9 C1019,558.1 1005.5,547.6 992.9,538.3 C998.9,516.4 1006.4,485.8 1012.7,454.3 L1050.2,452.2 Z M1058.9,451.6 L1077.2,450.4 L1077.2,442 L1058.9,442.9 L1058.9,419.8 L1050.2,419.8 L1050.2,443.5 L1014.5,445.3 C1019.3,421.9 1022.9,397.9 1025.6,377.8 L1017.2,377.2 C1014.8,397.6 1010.9,421.9 1006.4,445.9 C995,446.2 984.8,446.8 976.1,447.1 L977.6,456.4 L1004.3,454.9 C997.7,487.6 990.2,519.7 983,541.3 C997.7,551.5 1013.3,564.4 1027.4,577.3 C1016.3,599.2 999.5,621.4 974.9,641.2 C977.3,642.4 980.3,645.1 981.8,646.9 C1006.4,627.1 1022.9,605.5 1034.3,583.3 C1048.4,596.5 1060.4,609.4 1068.5,619.9 L1074.8,612.4 C1066.1,601.9 1053.5,588.4 1038.5,574.9 C1056.8,534.4 1058.9,492.7 1058.9,457 L1058.9,451.6 Z M1092.8,561.7 L1154.3,561.7 L1154.3,633.4 C1154.3,636.7 1153.4,637.9 1149.2,638.2 C1145,638.5 1131.8,638.5 1113.5,638.2 C1115.3,640.9 1116.8,643.9 1117.1,646.3 C1137.8,646.3 1149.5,646.3 1155.8,644.8 C1161.5,643 1163,640.3 1163,633.4 L1163,561.7 L1221.2,561.7 L1221.2,553 L1092.8,553 L1092.8,561.7 Z M1073.6,556.6 L1082.3,556.6 L1082.3,523.6 L1235.3,523.6 L1235.3,556.6 L1244,556.6 L1244,514.9 L1073.6,514.9 L1073.6,556.6 Z M1211,481.6 L1109.3,481.6 L1109.3,448.6 L1211,448.6 L1211,481.6 Z M1100.6,439.9 L1100.6,490.3 L1219.7,490.3 L1219.7,439.9 L1100.6,439.9 Z M1169.3,409.9 C1165.7,400.6 1157.9,386.5 1150.1,376 L1142.3,379 C1148.9,388.3 1155.8,400.6 1159.7,409.9 L1076,409.9 L1076,418.6 L1247.9,418.6 L1247.9,409.9 L1169.3,409.9 Z" id="袁欣婷"></path>
        </g>
    </g>
</svg>