<?xml version="1.0" encoding="UTF-8" standalone="no"?>
<svg width="194px" height="412px" viewBox="0 0 194 412" version="1.1" xmlns="http://www.w3.org/2000/svg" xmlns:xlink="http://www.w3.org/1999/xlink">
    <!-- Generator: Sketch 3.8.3 (29802) - http://www.bohemiancoding.com/sketch -->
    <title>facebook</title>
    <desc>Created with Sketch.</desc>
    <defs></defs>
    <g id="Page-1" stroke="none" stroke-width="1" fill="none" fill-rule="evenodd">
        <g id="facebook" fill="#020201">
            <g id="_x23_020201ff">
                <path d="M64.22,21.227 C80.286,5.929 103.138,0.762 124.695,0.118 C147.494,-0.087 170.284,0.037 193.083,0.046 C193.173,24.097 193.181,48.157 193.074,72.207 C178.34,72.181 163.596,72.243 148.862,72.181 C139.519,71.599 129.925,78.681 128.227,87.943 C128.003,104.036 128.146,120.138 128.155,136.232 C149.765,136.321 171.375,136.205 192.984,136.286 C191.402,159.567 188.514,182.742 185.126,205.827 C166.038,206.006 146.939,205.809 127.852,205.926 C127.682,274.591 127.941,343.256 127.718,411.921 C99.366,412.037 70.997,411.867 42.646,412.001 C42.109,343.327 42.69,274.618 42.351,205.935 C28.519,205.791 14.679,206.034 0.848,205.819 C0.901,182.734 0.866,159.65 0.874,136.573 C14.696,136.404 28.528,136.609 42.351,136.475 C42.771,114.033 41.93,91.565 42.789,69.142 C44.175,51.384 50.943,33.493 64.22,21.227 L64.22,21.227 Z" id="Shape"></path>
            </g>
        </g>
    </g>
</svg>