<?xml version="1.0" encoding="UTF-8" standalone="no"?>
<svg width="16px" height="13px" viewBox="0 0 16 13" version="1.1" xmlns="http://www.w3.org/2000/svg" xmlns:xlink="http://www.w3.org/1999/xlink" xmlns:sketch="http://www.bohemiancoding.com/sketch/ns">
    <!-- Generator: Sketch 3.4.4 (17248) - http://www.bohemiancoding.com/sketch -->
    <title>noun_26635_cc</title>
    <desc>Created with Sketch.</desc>
    <defs></defs>
    <g id="Page-1" stroke="none" stroke-width="1" fill="none" fill-rule="evenodd" sketch:type="MSPage">
        <g id="Films-with-slide-navigation" sketch:type="MSArtboardGroup" transform="translate(-529.000000, -1392.000000)" fill="#000000">
            <g id="noun_26635_cc" sketch:type="MSLayerGroup" transform="translate(529.000000, 1392.000000)">
                <g id="Group" sketch:type="MSShapeGroup">
                    <path d="M15.9136,1.63335758 C15.844,1.54763636 15.7334,1.50458182 15.6222,1.52009697 C15.5562,1.52921212 15.4728,1.54511515 15.3648,1.568 C15.2644,1.58913939 15.1418,1.61726061 15.005,1.6502303 C15.0574,1.53386667 15.1016,1.41284848 15.141,1.28659394 C15.2052,1.07907879 15.2586,0.858375758 15.314,0.624290909 C15.342,0.506957576 15.2964,0.384775758 15.1972,0.311854545 C15.0978,0.239127273 14.9642,0.230012121 14.855,0.288193939 C14.3646,0.550593939 13.998,0.716993939 13.681,0.825793939 C13.4136,0.917333333 13.1794,0.96950303 12.9216,1.00499394 C12.6192,0.728630303 12.28,0.516072727 11.9162,0.370618182 C11.5056,0.205575758 11.0656,0.125090909 10.6162,0.125090909 C10.0786,0.125284848 9.5274,0.239709091 8.9888,0.459830303 L8.9888,0.459830303 C8.727,0.566884848 8.4836,0.725721212 8.2634,0.919660606 C7.9334,1.21115152 7.6552,1.58254545 7.4562,1.99660606 C7.2572,2.41066667 7.1372,2.86778182 7.137,3.33110303 C7.137,3.37978182 7.1388,3.42865455 7.1412,3.47713939 C7.1328,3.47500606 7.125,3.47306667 7.1168,3.47093333 C6.545,3.32392727 5.6644,3.03301818 4.7904,2.6550303 C4.432,2.50065455 3.9364,2.19229091 3.453,1.79510303 C2.9682,1.39849697 2.4912,0.911515152 2.1464,0.405139394 C2.0944,0.328533333 2.0098,0.279078788 1.9158,0.269769697 C1.8218,0.260460606 1.7284,0.292654545 1.6616,0.357430303 C1.5116,0.502109091 1.3848,0.636315152 1.276,0.769939394 C1.1132,0.970084848 0.9924,1.17255758 0.9108,1.39306667 C0.8288,1.61357576 0.786,1.84630303 0.76,2.11277576 C0.7422,2.29255758 0.7304,2.48591515 0.7304,2.68547879 C0.7312,3.12591515 0.787,3.59815758 0.9818,4.02637576 C0.8334,4.04363636 0.7154,4.16019394 0.705,4.3072 C0.6968,4.42220606 0.6928,4.53469091 0.6928,4.64504242 C0.6922,5.63859394 1.019,6.44732121 1.5318,7.00877576 C1.5818,7.06385455 1.634,7.11524848 1.6874,7.16567273 C1.6872,7.168 1.6868,7.16993939 1.6868,7.17265455 C1.6862,7.1926303 1.686,7.21221818 1.686,7.232 C1.6858,7.61115152 1.787,7.9670303 1.9584,8.28179394 C2.2156,8.75481212 2.6242,9.1382303 3.0952,9.41827879 C3.269,9.52126061 3.4516,9.61008485 3.6396,9.68455758 C2.8474,9.92969697 2.1942,9.98593939 1.656,9.98652121 C1.417,9.98652121 1.2002,9.97488485 1.002,9.96363636 C0.8038,9.95180606 0.6244,9.9392 0.4558,9.9392 C0.4156,9.9392 0.3762,9.9401697 0.3372,9.94172121 C0.2426,9.94598788 0.156,9.9904 0.0996,10.0637091 C0.043,10.1372121 0.0234,10.2301091 0.0456,10.3193212 C0.1388,10.6872242 0.3642,11.0217697 0.6754,11.3173333 C1.1442,11.7602909 1.8126,12.1252848 2.6156,12.3863273 C3.4184,12.6462061 4.3568,12.8 5.3642,12.8 C6.8328,12.8 8.4496,12.4724364 9.9914,11.6592485 C11.4002,10.9145212 12.5722,9.6950303 13.277,8.33551515 C13.5202,7.86540606 13.786,7.25798788 13.9934,6.61236364 C14.2004,5.96654545 14.3508,5.28523636 14.3512,4.65590303 C14.3512,4.44237576 14.333,4.23466667 14.2924,4.03587879 C14.4708,3.91156364 14.63,3.79054545 14.774,3.66797576 C15.0594,3.42516364 15.2846,3.17420606 15.4718,2.89241212 C15.6594,2.6102303 15.8094,2.30050909 15.9588,1.93473939 C16.0008,1.83350303 15.9836,1.71907879 15.9136,1.63335758 L15.9136,1.63335758 Z" id="Shape"></path>
                </g>
            </g>
        </g>
    </g>
</svg>